<svg fill="none" height="32" viewBox="0 0 32 32" width="32" xmlns="http://www.w3.org/2000/svg" xmlns:xlink="http://www.w3.org/1999/xlink"><clipPath id="a"><path d="m0 0h32v32h-32z"/></clipPath><g clip-path="url(#a)"><rect fill="#09090b" height="32" rx="6" width="32"/><path d="m21.9537 16.7206c-.2213-2.2059-1.8149-8.86766-6.9497-8.73531-5.09052.13236-5.13479 6.52941-5.002 8.33821.2213 2.2059 1.9477 8.8236 6.994 8.6912 4.9577-.1765 5.1348-6.5294 4.9577-8.2941zm5.0463-.3088c0 3.1764-2.6559 10.5882-10.7565 10.5882-8.63183 0-11.2435-6.7941-11.2435-10.4118 0-3.1764 2.43461-10.5882 10.5795-10.5882 8.9416 0 11.4205 6.6618 11.4205 10.4118z" fill="#e4e4e7"/></g></svg>